<svg width="150" height="150" xmlns="http://www.w3.org/2000/svg">
 <style type="text/css">.st0{fill:#374149;}</style>

 <g>
  <title>background</title>
  <rect fill="none" id="canvas_background" height="152" width="152" y="-1" x="-1"/>
 </g>
 <g>
  <title>Layer 1</title>
  <g stroke="null" id="svg_1">
   <path stroke="null" id="svg_5" d="m105.871573,9.438002l-60.743143,0c-1.432797,0 -2.594533,1.606442 -2.594533,3.587691l0,23.036702l0,11.295762l0,10.683228l0,11.294306l0,10.698538l0,11.295762l0,10.698904l0,11.295397l0,14.716467l0,3.227463l0,11.201328l0,0.034274l0,0l0,0.059794l25.182773,0l0,-11.295397l0,-3.227463l0,-9.956942l15.567718,0l0,9.956942l0,3.227463l0,11.295397l25.181718,0l0,-11.295397l0,-3.227463l0,-14.716467l0,-11.295397l0,-10.698904l0,-11.295762l0,-10.698538l0,-11.294306l0,-10.683228l0,-11.295762l0,-23.036702c0,-1.981249 -1.160685,-3.587691 -2.594533,-3.587691zm-10.213065,16.136228l0,10.488164l-9.49219,0l0,-10.488164l9.476893,0l0.015297,0zm0,21.783926l0,10.683228l-9.49219,0l0,-10.683228l9.49219,0zm0,21.977169l0,10.698538l-9.49219,0l0,-10.698538l9.49219,0zm0,21.9943l0,10.698904l-9.49219,0l0,-10.698904l9.49219,0zm-15.820315,-65.755396l0,10.488164l-9.492185,0l0,-10.488164l9.476893,0l0.015292,0zm-9.492185,32.466789l0,-10.683228l9.492185,0l0,10.683228l-9.492185,0zm0,21.992844l0,-10.698538l9.492185,0l0,10.698538l-9.492185,0zm0,21.994666l0,-10.698904l9.492185,0l0,10.698904l-9.492185,0zm-6.328125,-76.454299l0,10.488164l-9.49219,0l0,-10.488164l9.476893,0l0.015297,0zm0,21.783926l0,10.683228l-9.49219,0l0,-10.683228l9.49219,0zm0,21.977169l0,10.698538l-9.49219,0l0,-10.698538l9.49219,0zm0,21.9943l0,10.698904l-9.49219,0l0,-10.698904l9.49219,0z" class="st0"/>
   <path stroke="null" id="svg_6" d="m7.999999,32.970567l0,109.200011l0,0.333246l0,0l0,0.059794l26.86368,0l0,-34.467728l-18.927685,0l0,-9.085175l18.927949,0l0,-9.600722l-18.927949,0l0,-9.10085l18.770009,0l0.115491,0l0,0l0.042449,0l0,-9.602184l-18.927949,0l0,-9.083713l18.927949,0l0,-9.600722l-18.927949,0l0,-8.908704l18.770009,0l0.115491,0.001456l0,-0.001456l0.042449,0l0,-13.730948l-24.268356,0c-1.433852,0 -2.595588,1.604986 -2.595588,3.587696z" class="st0"/>
   <path stroke="null" id="svg_7" d="m140.405472,29.382871l-24.268097,0l0,13.631043l0,0.041567l0,0l0,0.058338l18.854648,0l0.073301,0l0,8.908704l-18.927949,0l0,9.51249l0,0.029894l0,0l0,0.058338l18.927949,0l0,9.083713l-18.927949,0l0,9.515408l0,0.028438l0,0l0,0.058698l18.854648,0l0.073301,0l0,9.100856l-18.927949,0l0,9.513946l0,0.028438l0,0l0,0.058338l18.927949,0l0,9.085169l-18.927949,0l0,34.304026l0,0.103913l0,0l0,0.059794l26.86263,0l0,-109.593417c0,-1.982711 -1.160685,-3.587696 -2.594533,-3.587696z" class="st0"/>
  </g>
 </g>
</svg>