<!--?xml version="1.0" encoding="utf-8"?-->
<!-- Generator: Adobe Illustrator 18.1.1, SVG Export Plug-In . SVG Version: 6.00 Build 0)  -->

<svg version="1.1" id="_x31_0" xmlns="http://www.w3.org/2000/svg" xmlns:xlink="http://www.w3.org/1999/xlink" x="0px" y="0px" viewBox="0 0 512 512" style="enable-background:new 0 0 512 512;" xml:space="preserve">
<style type="text/css">
	.st0{fill:#374149;}
</style>
<g>
	<path class="st0" d="M371.187,73.438H140.813c-5.434,0-9.84,4.406-9.84,9.84v63.183v30.981v29.301v30.977v29.343v30.981v29.344
		v30.98v40.363v8.852v30.722v0.094l0,0v0.164h95.508v-30.98v-8.852v-27.309h59.042v27.309v8.852v30.98h95.504v-30.98v-8.852v-40.363
		v-30.98v-29.344v-30.981v-29.343v-30.977v-29.301v-30.981V83.278C381.027,77.844,376.625,73.438,371.187,73.438z M332.453,117.695
		v28.766h-36v-28.766h35.942H332.453z M332.453,177.442v29.301h-36v-29.301H332.453z M332.453,237.719v29.343h-36v-29.343H332.453z
		 M332.453,298.043v29.344h-36v-29.344H332.453z M272.453,117.695v28.766h-36v-28.766h35.942H272.453z M236.453,206.742v-29.301h36
		v29.301H236.453z M236.453,267.062v-29.343h36v29.343H236.453z M236.453,327.387v-29.344h36v29.344H236.453z M212.453,117.695
		v28.766h-36v-28.766h35.942H212.453z M212.453,177.442v29.301h-36v-29.301H212.453z M212.453,237.719v29.343h-36v-29.343H212.453z
		 M212.453,298.043v29.344h-36v-29.344H212.453z"></path>
	<path class="st0" d="M0,137.981v299.504v0.914l0,0v0.164h101.883v-94.535H30.098V319.11h71.786v-26.332H30.098v-24.961h71.187
		h0.438l0,0h0.161v-26.336H30.098v-24.914h71.786v-26.332H30.098v-24.434h71.187l0.438,0.004v-0.004h0.161v-37.66H9.844
		C4.406,128.141,0,132.543,0,137.981z"></path>
	<path class="st0" d="M502.16,128.141h-92.039v37.386v0.114l0,0v0.16h71.508h0.278v24.434h-71.786v26.09v0.082l0,0v0.16h71.786
		v24.914h-71.786v26.098v0.078l0,0v0.161h71.508h0.278v24.961h-71.786v26.094v0.078l0,0v0.16h71.786v24.918h-71.786v94.086v0.285
		l0,0v0.164H512V137.981C512,132.543,507.598,128.141,502.16,128.141z"></path>
</g>
</svg>
