<!--?xml version="1.0" encoding="utf-8"?-->
<!-- Generator: Adobe Illustrator 19.1.1, SVG Export Plug-In . SVG Version: 6.00 Build 0)  -->
<svg version="1.1" id="_x31_0" xmlns="http://www.w3.org/2000/svg" xmlns:xlink="http://www.w3.org/1999/xlink" x="0px" y="0px" viewBox="0 0 512 512" style="width: 256px; height: 256px; opacity: 1;" xml:space="preserve">
<style type="text/css">
	.st0{fill:#374149;}
</style>
<g>
	<path class="st0" d="M424.382,400.402c-4.644-19.987-20.628-34.452-40.037-37.87c-0.066-0.012-0.13-0.031-0.199-0.043
		c-2.66-0.457-5.375-0.668-8.145-0.691c-0.121,0-0.238-0.031-0.363-0.031c-0.148,0-0.312,0.004-0.461,0.008
		c-0.871,0.008-1.714-0.129-2.594-0.078h-0.367l-22.608,2.309l-8.91,0.847c1.886-5.906,2.324-12.175,1.37-18.374
		c-1.461-9.289-6.144-17.926-13.167-24.218l-43.752-39.069c-16.827-14.999-39.217-21.366-61.387-17.487l-83.918,14.636
		c-4.758,0.801-9.292,2.339-13.39,4.534c-3.211-3.445-7.539-5.691-12.258-6.683c-0.046-0.011-0.09-0.023-0.133-0.031
		c-1.515-0.312-3.05-0.469-4.636-0.473c-0.028,0-0.055-0.011-0.082-0.011c-0.07,0-0.145,0.015-0.218,0.019
		c-1.102,0.008-2.188-0.086-3.305,0.082l-44.412,6.874c-4.156-3.05-9.054-4.984-14.265-5.835c-0.047-0.008-0.098-0.016-0.149-0.024
		c-3.359-0.531-6.828-0.707-10.39-0.137L0.023,284.29v142.009L0,448.313l0.023-0.003v0.164l61.388-9.515
		c9.144-1.387,16.827-6.363,21.874-13.242l44.412-6.949c6.149-0.879,11.27-4.172,14.855-8.707c4.683,0.95,9.582,1.172,14.487,0.512
		l25.605-3.512l45.95,48.436c11.707,12.218,28.022,18.362,44.775,16.975l0.294-0.074l106.382-10.831
		c13.757-1.168,26.413-8.121,34.974-18.874c8.488-10.902,12.144-25.022,10.098-38.63
		C424.894,402.82,424.675,401.573,424.382,400.402z M376.97,427.475l-106.526,10.902c-6.366,0.512-12.585-1.902-16.971-6.511
		l-49.83-52.388c-5.121-5.488-12.581-8.046-20.046-7.098l-31.166,4.246c-2.855,0.363-5.562-0.441-7.683-2.05l-7.758-50.045
		c-0.07-5.121,3.66-9.659,8.706-10.534l83.996-14.562c11.707-2.047,23.781,1.39,32.632,9.366l43.751,38.998
		c1.172,1.094,1.902,2.414,2.122,3.949c0.218,1.246,0,2.562-0.586,3.805c-3.301,6.926-10.562,10.265-17.483,9.171
		c-0.313-0.05-0.625-0.086-0.934-0.152c-1.047-0.23-2.078-0.539-3.082-0.981c-0.152-0.066-0.289-0.16-0.437-0.23
		c-1.008-0.477-2.004-1.031-2.938-1.734l-22.171-16.827c-4.316-3.293-10.534-1.683-12.73,3.363l-1.316,2.926
		c-0.661,1.465-0.879,3.074-0.586,4.683c0.219,1.539,0.954,3.074,2.047,4.317l32.561,35.486c4.242,4.683,10.316,7.097,16.682,6.73
		l77.407-6.363c7.683-0.512,14.632,4.609,16.39,12.144c0.07,0.438,0.145,0.805,0.218,1.172
		C392.63,418.257,386.118,426.741,376.97,427.475z M111.967,386.574l-24.218,3.73L76.41,316.996l24.143-3.734l2.27,14.488
		l9.078,58.387L111.967,386.574z" style="fill: rgb(75, 75, 75);"></path>
	<path class="st0" d="M506.562,113.333l-12.531-1.734l-0.035-0.008v0.004l-0.16-0.023l-17.921,127.15
		c-0.562,3.441-3.762,5.839-7.203,5.359l-235.91-33.428l-0.547-0.074l0,0l-0.156-0.024l-2.082,14.722
		c-0.481,3.442,1.922,6.644,5.359,7.121l249.339,35.291c3.442,0.481,6.641-1.922,7.203-5.363l20.003-141.79
		C512.48,117.013,509.999,113.814,506.562,113.333z" style="fill: rgb(75, 75, 75);"></path>
	<polygon class="st0" points="353.163,114.533 351.565,116.052 350.765,116.853 347.241,120.372 346.233,121.309 346.117,121.4 
		342.921,115.732 342.363,114.771 341.32,112.853 332.519,97.249 323.477,95.967 319.961,95.452 318.094,95.092 318.149,95.186 
		318.036,95.17 317.957,95.17 328.117,113.173 328.359,113.653 328.437,113.653 334.84,125.017 335,125.415 335.031,125.481 
		335.043,125.571 317.704,123.126 317.633,123.114 317.633,123.118 317.477,123.095 316.461,130.278 316.457,130.297 
		316.457,130.297 316.434,130.457 338.679,133.578 337.48,141.738 315.614,138.672 315.391,138.637 315.391,138.641 
		315.235,138.617 314.227,145.742 314.216,145.824 314.22,145.824 314.196,145.981 336.441,149.101 333.801,167.987 
		345.081,169.585 345.081,169.425 346.124,162.065 347.721,150.703 354.686,151.66 369.248,153.741 369.967,153.824 
		371.009,146.621 371.009,146.539 364.686,145.66 350.124,143.5 349.003,141.578 349.964,135.176 359.487,136.539 372.209,138.297 
		373.248,131.098 373.248,131.016 362.205,129.415 360.757,129.208 356.037,127.989 365.326,118.935 365.729,118.533 
		374.849,109.572 379.287,105.264 380.427,104.209 380.377,104.201 380.451,104.131 380.451,104.049 365.889,101.971 	" style="fill: rgb(75, 75, 75);"></polygon>
	<path class="st0" d="M208.732,193.752l6.242,0.878l18.964,2.722l48.17,6.801l165.637,23.444l10.323,1.442
		c3.442,0.48,6.645-1.922,7.121-5.359l1.203-8.726l7.922-56.013l7.039-49.209l2.961-20.886l0.961-7.042
		c0.48-3.442-1.918-6.641-5.359-7.121l-249.34-35.287c-3.442-0.481-6.64,1.918-7.121,5.358l-20.085,141.877
		C202.889,190.072,205.291,193.271,208.732,193.752z M452.709,131.254l-6.242,44.412c-5.281-0.16-10.402,1.122-14.804,3.523
		c-1.922,1.039-3.762,2.321-5.363,3.758c-4.398,3.762-7.601,8.805-9.202,14.726l-42.966-6.082l-11.285-1.602l-100.261-14.164
		l-5.844-0.8c0.238-11.363-6.003-21.765-15.765-26.968c-0.695-0.375-1.515-0.554-2.262-0.867c-0.874-0.375-1.805-0.734-2.781-1.07
		c-0.414-0.125-0.782-0.351-1.199-0.461l7.445-52.892c2.32,0.078,4.558-0.16,6.718-0.641c7.683-1.601,14.406-6.159,18.648-12.643
		c1.839-2.641,3.121-5.602,3.999-8.801l160.356,22.726c-0.078,3.281,0.402,6.562,1.359,9.519
		c2.961,9.523,10.644,17.206,20.647,19.846L452.709,131.254z" style="fill: rgb(75, 75, 75);"></path>
	<polygon class="st0" points="254.878,119.305 254.097,119.193 254.097,119.197 253.941,119.173 253.382,123.575 283.709,127.895 
		305.153,130.934 305.794,126.614 305.794,126.536 288.99,124.133 	" style="fill: rgb(75, 75, 75);"></polygon>
	<polygon class="st0" points="382.877,141.711 382.873,141.738 382.873,141.738 382.849,141.898 390.212,142.937 404.777,145.02 
		434.624,149.261 435.265,144.941 435.265,144.859 383.489,137.497 	" style="fill: rgb(75, 75, 75);"></polygon>
</g>
</svg>
