<svg width="150" height="150" xmlns="http://www.w3.org/2000/svg">
 <style type="text/css">.st0{fill:#374149;}</style>

 <g>
  <title>background</title>
  <rect fill="none" id="canvas_background" height="152" width="152" y="-1" x="-1"/>
 </g>
 <g>
  <title>Layer 1</title>
  <g stroke="null" id="svg_1">
   <path stroke="null" id="svg_8" fill=" rgb(75, 75, 75)" d="m121.502639,119.730746c-1.263942,-6.292993 -5.614254,-10.847361 -10.896737,-11.923533c-0.017963,-0.003778 -0.035382,-0.00976 -0.054161,-0.013539c-0.723963,-0.143888 -1.462896,-0.210323 -2.216798,-0.217564c-0.032932,0 -0.064776,-0.00976 -0.098797,-0.00976c-0.040281,0 -0.084916,0.001259 -0.125469,0.002519c-0.237057,0.002519 -0.466494,-0.040616 -0.706,-0.024559l-0.099885,0l-6.153144,0.726999l-2.425005,0.266682c0.513306,-1.85953 0.632515,-3.833351 0.372868,-5.785133c-0.397636,-2.924682 -1.672192,-5.644079 -3.583619,-7.625142l-11.907837,-12.301044c-4.579749,-4.7225 -10.673561,-6.727177 -16.707496,-5.505858l-22.839684,4.608208c-1.294969,0.252198 -2.528973,0.736444 -3.644312,1.42755c-0.873927,-1.084673 -2.051865,-1.791836 -3.336219,-2.104171c-0.01252,-0.003463 -0.024495,-0.007242 -0.036198,-0.00976c-0.412333,-0.098235 -0.830108,-0.147667 -1.261765,-0.148926c-0.007621,0 -0.014969,-0.003463 -0.022318,-0.003463c-0.019052,0 -0.039464,0.004723 -0.059332,0.005982c-0.299928,0.002519 -0.595501,-0.027077 -0.899511,0.025818l-12.087467,2.164309c-1.131125,-0.960306 -2.464197,-1.569234 -3.882458,-1.837175c-0.012792,-0.002519 -0.026672,-0.005038 -0.040553,-0.007557c-0.914208,-0.167188 -1.858354,-0.222602 -2.827812,-0.043135l-9.956674,1.773889l0,44.712148l-0.00626,6.931203l0.00626,-0.000945l0,0.051636l16.707768,-2.995839c2.488692,-0.436703 4.579749,-2.003418 5.953374,-4.169301l12.087467,-2.187923c1.673553,-0.276757 3.067319,-1.313572 4.043036,-2.741437c1.274557,0.299112 2.607901,0.369009 3.942879,0.161205l6.968828,-1.105768l12.506059,15.250284c3.186255,3.84689 7.626655,5.781355 12.186263,5.344652l0.080017,-0.023299l28.953636,-3.410187c3.744197,-0.36775 7.188739,-2.556932 9.518758,-5.942561c2.310151,-3.432542 3.305192,-7.878285 2.748339,-12.162823c-0.060693,-0.391364 -0.120298,-0.783987 -0.200043,-1.152682zm-12.903967,8.524051l-28.992828,3.432542c-1.732613,0.161205 -3.425218,-0.598853 -4.618941,-2.050017l-13.562066,-16.494588c-1.393766,-1.727921 -3.424129,-2.533318 -5.455853,-2.234836l-8.482347,1.336871c-0.777036,0.114292 -1.513791,-0.138851 -2.091057,-0.645451l-2.111469,-15.756885c-0.019052,-1.612369 0.99613,-3.041178 2.369483,-3.316675l22.860913,-4.584909c3.186255,-0.644507 6.472396,0.437648 8.881343,2.948926l11.907564,12.278689c0.318979,0.344451 0.517661,0.760058 0.577538,1.24336c0.059332,0.392308 0,0.806657 -0.15949,1.198021c-0.898422,2.180681 -2.874624,3.23198 -4.75829,2.887529c-0.085188,-0.015743 -0.170104,-0.027077 -0.254204,-0.047858c-0.284959,-0.072416 -0.565562,-0.169706 -0.838818,-0.308872c-0.041369,-0.02078 -0.078656,-0.050377 -0.118937,-0.072416c-0.274344,-0.150186 -0.545422,-0.324615 -0.799626,-0.545957l-6.034207,-5.298054c-1.174671,-1.036815 -2.867004,-0.5299 -3.464682,1.058855l-0.358171,0.921264c-0.179902,0.461262 -0.239235,0.967862 -0.15949,1.474463c0.059605,0.484561 0.259647,0.967862 0.557125,1.359226l8.862019,11.172921c1.154531,1.474463 2.807671,2.234521 4.540285,2.11897l21.067606,-2.003418c2.091057,-0.161205 3.982343,1.451164 4.460812,3.823591c0.019052,0.137906 0.039464,0.253458 0.059332,0.369009c0.378584,2.833374 -1.393766,5.504598 -3.883546,5.735701zm-72.124987,-12.877857l-6.591333,1.174407l-3.086098,-23.081341l6.57092,-1.175666l0.617818,4.561609l2.470729,18.383399l0.017963,0.137591z" class="st0"/>
   <path stroke="null" id="svg_9" fill=" rgb(75, 75, 75)" d="m143.869297,29.34583l-3.410521,-0.545957l-0.009526,-0.002519l0,0.001259l-0.043547,-0.007242l-4.877499,40.033727c-0.152958,1.083414 -1.023891,1.838434 -1.960417,1.687304l-64.206842,-10.52495l-0.148875,-0.023299l0,0l-0.042458,-0.007557l-0.566651,4.635285c-0.130912,1.083729 0.523104,2.091892 1.458541,2.242078l67.861768,11.111524c0.936798,0.151445 1.807459,-0.60515 1.960417,-1.688564l5.44415,-44.643195c0.152141,-1.109232 -0.523104,-2.116451 -1.458541,-2.267896z" class="st0"/>
   <polygon stroke="null" id="svg_10" fill=" rgb(75, 75, 75)" points="102.11920011069287,29.72365379333496 101.68427967373555,30.201921463012695 101.4665505801413,30.45411491394043 100.50742823034761,31.562089920043945 100.23308598741733,31.85710906982422 100.20150809884308,31.885759353637695 99.33166722492842,30.101165771484375 99.17980506589811,29.798593521118164 98.89593269387115,29.194700241088867 96.50059150794641,24.281715393066406 94.03965973132654,23.87807273864746 93.08272572622354,23.715919494628906 92.5745891015431,23.602571487426758 92.58954901422385,23.632165908813477 92.55880015725597,23.627132415771484 92.53730508551598,23.627132415771484 95.30251386793407,29.29545021057129 95.368380802498,29.446584701538086 95.3896069991224,29.446584701538086 97.13229118574236,33.02458572387695 97.17583401695993,33.14990234375 97.18427370808786,33.17068099975586 97.18753755324087,33.19901657104492 92.46844318091462,32.429195404052734 92.44911404760569,32.42542266845703 92.44911404760569,32.42667770385742 92.40666165435687,32.41944122314453 92.1301385354891,34.68103790283203 92.12904809752035,34.68701934814453 92.12904809752035,34.68701934814453 92.1227892823299,34.737396240234375 98.17713241613365,35.72005844116211 97.85080765085786,38.28926467895508 91.89962293639837,37.32392120361328 91.83892437905615,37.31290054321289 91.83892437905615,37.31416702270508 91.79645704830091,37.30660629272461 91.52211480537062,39.549949645996094 91.51911983533319,39.57576370239258 91.52021774205514,39.57576370239258 91.5136825829959,39.62519454956055 97.56803318555285,40.6075325012207 96.84950925168414,46.55387496948242 99.91954772763802,47.057010650634766 99.91954772763802,47.00664138793945 100.20342009966498,44.68931198120117 100.63807166150673,41.111942291259766 102.53371591387895,41.41324996948242 106.49699486755617,42.06846618652344 106.69269113917926,42.094600677490234 106.97628716733743,39.82670211791992 106.97628716733743,39.800880432128906 105.25537439632626,39.52412414550781 101.29208797389583,38.84404373168945 100.98698193649125,38.238887786865234 101.24853767392506,36.22319030761719 103.84038175681962,36.652339935302734 107.30289574523522,37.20585250854492 107.58567021054023,34.9392204284668 107.58567021054023,34.91340255737305 104.58012441855954,34.40931701660156 104.18603565540434,34.34414291381836 102.90140263443482,33.96033477783203 105.42956065870294,31.10964012145996 105.53924676835322,30.98307228088379 108.02140474159751,28.16166114807129 109.2292813858221,26.80527114868164 109.5395558004484,26.473098754882812 109.52594773209876,26.470579147338867 109.54607602200122,26.44853973388672 109.54607602200122,26.422725677490234 105.582797068324,25.768457412719727 " class="st0"/>
   <path stroke="null" id="svg_11" fill=" rgb(75, 75, 75)" d="m62.809894,54.6661l1.698864,0.276442l5.161369,0.857033l13.110269,2.141324l45.080873,7.381445l2.809577,0.45402c0.936798,0.15113 1.808548,-0.60515 1.938099,-1.687304l0.327417,-2.747419l2.156104,-17.635935l1.915781,-15.493666l0.805886,-6.576047l0.261552,-2.217204c0.13064,-1.083729 -0.522016,-2.090948 -1.458541,-2.242078l-67.86204,-11.110265c-0.936798,-0.151445 -1.807187,0.603891 -1.938099,1.686989l-5.466468,44.670587c-0.130912,1.083414 0.522832,2.090633 1.459358,2.242078zm66.40241,-19.677766l-1.698864,13.98331c-1.437312,-0.050377 -2.831078,0.353267 -4.029156,1.109232c-0.523104,0.327134 -1.023891,0.730777 -1.45963,1.183223c-1.196989,1.184482 -2.068739,2.772292 -2.504478,4.636545l-11.693914,-1.914944l-3.071401,-0.504397l-27.287704,-4.459597l-1.590542,-0.251883c0.064776,-3.57769 -1.633817,-6.852804 -4.290708,-8.490991c-0.189156,-0.11807 -0.412333,-0.174429 -0.615641,-0.272979c-0.237874,-0.11807 -0.491261,-0.231103 -0.756896,-0.336894c-0.112677,-0.039357 -0.212834,-0.110514 -0.326328,-0.145148l2.026281,-16.653275c0.631427,0.024559 1.240536,-0.050377 1.828416,-0.201822c2.091057,-0.504082 3.920833,-1.939188 5.075364,-3.980703c0.500515,-0.83153 0.849432,-1.763814 1.088395,-2.771033l43.64356,7.155379c-0.021229,1.033037 0.109411,2.066074 0.369875,2.997098c0.805886,2.998358 2.896942,5.417384 5.619425,6.248599l-0.326056,2.67028z" class="st0"/>
   <polygon stroke="null" id="svg_12" fill=" rgb(75, 75, 75)" points="75.36930033058161,31.226139068603516 75.15673214545586,31.19087791442871 75.15673214545586,31.192134857177734 75.11427975220704,31.1845760345459 74.96214124930793,32.5705680847168 83.21614423491974,33.93073654174805 89.05248193126044,34.8875846862793 89.2269370687527,33.527408599853516 89.2269370687527,33.50285339355469 84.65344604026632,32.74625778198242 " class="st0"/>
   <polygon stroke="null" id="svg_13" fill=" rgb(75, 75, 75)" points="110.20635861833398,38.28076934814453 110.20526818036524,38.28926467895508 110.20526818036524,38.28926467895508 110.19874049005921,38.33964538574219 112.20270407024418,38.666778564453125 116.16681205552777,39.32261657714844 124.29017160998046,40.65791320800781 124.46462674747272,39.2977409362793 124.46462674747272,39.27192687988281 110.37292675243589,36.9539680480957 " class="st0"/>
  </g>
 </g>
</svg>